<svg xmlns="http://www.w3.org/2000/svg" viewBox="0 0 128 156"><rect width="128" height="156" rx="10" fill="#eddbb7"/><circle cx="65" cy="72" r="51" fill="#f9edcf"/><path d="M14 156V131Q17 105 50 102H80Q112 107 116 136V156" fill="#638699" stroke="#593e2d" stroke-width="3"/><path d="M53 88v23l11 12 13-12V88" fill="#bc8965" stroke="#593e2d" stroke-width="3"/><path d="M27 69L25 38Q63 2 99 38L99 72 84 50 40 52Z" fill="#303631" stroke="#593e2d" stroke-width="3"/><ellipse cx="64" cy="68" rx="29" ry="37" fill="#bc8965" stroke="#593e2d" stroke-width="3"/><path d="M34 57Q31 24 65 25Q96 24 95 55L82 43 66 52 48 43Z" fill="#303631"/><path d="M47 68h5m25 0h5" stroke="#3e2e24" stroke-width="4" stroke-linecap="round"/><path d="M58 85q7 6 14-1" fill="none" stroke="#70452f" stroke-width="2.5" stroke-linecap="round"/><path d="M42 108l22 20 21-20M64 128v27" fill="none" stroke="#f8e8c7" stroke-width="4"/><g fill="none" stroke="#493a30" stroke-width="3"><rect x="38" y="59" width="23" height="19" rx="4"/><rect x="69" y="59" width="23" height="19" rx="4"/><path d="M61 65h8"/></g></svg>